REM DIRINDEX 1\2\6,1\2\7,1\2\8,1\3\9,1\3\10,1\3\11,1\4\12,1\4\13,1\4\14,1\5\15,1\5\16,1\5\17,1\5\18
REM DIRNAME folder01,folder02,folder03,folder04,folder05,folder06,folder07,folder08,folder09,folder10,folder11,folder12,folder13,folder14,folder15,folder16,folder17,folder18
TITLE ""
FILE "2Q_j_1376-1389.mp3" MP3
  TRACK 01 AUDIO
    TITLE "6:cjc019_0590"
    INDEX 01 00:00:00
  TRACK 02 AUDIO
    TITLE "0:"
    INDEX 01 00:01:36
  TRACK 03 AUDIO
    TITLE "7:cjc019_0591"
    INDEX 01 00:02:20
  TRACK 04 AUDIO
    TITLE "0:"
    INDEX 01 00:06:31
  TRACK 05 AUDIO
    TITLE "8:cjc019_0592"
    INDEX 01 00:07:05
  TRACK 06 AUDIO
    TITLE "0:"
    INDEX 01 00:09:51
  TRACK 07 AUDIO
    TITLE "6:cjc019_0593"
    INDEX 01 00:10:25
  TRACK 08 AUDIO
    TITLE "0:"
    INDEX 01 00:11:74
  TRACK 09 AUDIO
    TITLE "7:cjc019_0594"
    INDEX 01 00:12:52
  TRACK 10 AUDIO
    TITLE "0:"
    INDEX 01 00:15:03
  TRACK 11 AUDIO
    TITLE "8:cjc019_0595"
    INDEX 01 00:15:58
  TRACK 12 AUDIO
    TITLE "0:"
    INDEX 01 00:21:06
  TRACK 13 AUDIO
    TITLE "6:cjc019_0596"
    INDEX 01 00:21:58
  TRACK 14 AUDIO
    TITLE "0:"
    INDEX 01 00:22:74
  TRACK 15 AUDIO
    TITLE "7:cjc019_0597"
    INDEX 01 00:23:67
  TRACK 16 AUDIO
    TITLE "0:"
    INDEX 01 00:27:57
  TRACK 17 AUDIO
    TITLE "8:cjc019_0598"
    INDEX 01 00:28:39
  TRACK 18 AUDIO
    TITLE "0:"
    INDEX 01 00:32:39
  TRACK 19 AUDIO
    TITLE "6:cjc019_0599"
    INDEX 01 00:33:11
  TRACK 20 AUDIO
    TITLE "0:"
    INDEX 01 00:34:30
  TRACK 21 AUDIO
    TITLE "7:cjc019_0600"
    INDEX 01 00:35:15
  TRACK 22 AUDIO
    TITLE "0:"
    INDEX 01 00:38:55
  TRACK 23 AUDIO
    TITLE "8:cjc019_0601"
    INDEX 01 00:39:33
  TRACK 24 AUDIO
    TITLE "0:"
    INDEX 01 00:41:53
  TRACK 25 AUDIO
    TITLE "6:cjc019_0602"
    INDEX 01 00:42:33
  TRACK 26 AUDIO
    TITLE "0:"
    INDEX 01 00:43:42
  TRACK 27 AUDIO
    TITLE "7:cjc019_0603"
    INDEX 01 00:44:34
  TRACK 28 AUDIO
    TITLE "0:"
    INDEX 01 00:46:19
  TRACK 29 AUDIO
    TITLE "8:cjc019_0604"
    INDEX 01 00:46:74
  TRACK 30 AUDIO
    TITLE "0:"
    INDEX 01 00:50:46
  TRACK 31 AUDIO
    TITLE "6:cjc019_0605"
    INDEX 01 00:51:28
  TRACK 32 AUDIO
    TITLE "0:"
    INDEX 01 00:52:43
  TRACK 33 AUDIO
    TITLE "7:cjc019_0606"
    INDEX 01 00:53:27
  TRACK 34 AUDIO
    TITLE "0:"
    INDEX 01 00:55:20
  TRACK 35 AUDIO
    TITLE "8:cjc019_0607"
    INDEX 01 00:56:06
  TRACK 36 AUDIO
    TITLE "0:"
    INDEX 01 00:58:48
  TRACK 37 AUDIO
    TITLE "6:cjc019_0608"
    INDEX 01 00:59:32
  TRACK 38 AUDIO
    TITLE "0:"
    INDEX 01 01:00:62
  TRACK 39 AUDIO
    TITLE "7:cjc019_0609"
    INDEX 01 01:01:46
  TRACK 40 AUDIO
    TITLE "0:"
    INDEX 01 01:03:22
  TRACK 41 AUDIO
    TITLE "8:cjc019_0610"
    INDEX 01 01:04:07
  TRACK 42 AUDIO
    TITLE "0:"
    INDEX 01 01:07:51
  TRACK 43 AUDIO
    TITLE "6:cjc019_0611"
    INDEX 01 01:08:35
  TRACK 44 AUDIO
    TITLE "0:"
    INDEX 01 01:09:52
  TRACK 45 AUDIO
    TITLE "7:cjc019_0612"
    INDEX 01 01:10:35
  TRACK 46 AUDIO
    TITLE "0:"
    INDEX 01 01:13:36
  TRACK 47 AUDIO
    TITLE "8:cjc019_0613"
    INDEX 01 01:14:14
  TRACK 48 AUDIO
    TITLE "0:"
    INDEX 01 01:16:36
  TRACK 49 AUDIO
    TITLE "6:cjc019_0614"
    INDEX 01 01:17:14
  TRACK 50 AUDIO
    TITLE "0:"
    INDEX 01 01:18:31
  TRACK 51 AUDIO
    TITLE "7:cjc019_0615"
    INDEX 01 01:19:09
  TRACK 52 AUDIO
    TITLE "0:"
    INDEX 01 01:22:52
  TRACK 53 AUDIO
    TITLE "8:cjc019_0616"
    INDEX 01 01:23:28
  TRACK 54 AUDIO
    TITLE "0:"
    INDEX 01 01:26:11
  TRACK 55 AUDIO
    TITLE "6:cjc019_0617"
    INDEX 01 01:26:66
  TRACK 56 AUDIO
    TITLE "0:"
    INDEX 01 01:28:12
  TRACK 57 AUDIO
    TITLE "7:cjc019_0618"
    INDEX 01 01:28:72
  TRACK 58 AUDIO
    TITLE "0:"
    INDEX 01 01:31:34
  TRACK 59 AUDIO
    TITLE "8:cjc019_0619"
    INDEX 01 01:32:15
  TRACK 60 AUDIO
    TITLE "0:"
    INDEX 01 01:36:35
  TRACK 61 AUDIO
    TITLE "6:cjc019_0620"
    INDEX 01 01:37:15
  TRACK 62 AUDIO
    TITLE "0:"
    INDEX 01 01:38:30
  TRACK 63 AUDIO
    TITLE "7:cjc019_0621"
    INDEX 01 01:39:10
  TRACK 64 AUDIO
    TITLE "0:"
    INDEX 01 01:40:70
  TRACK 65 AUDIO
    TITLE "8:cjc019_0622"
    INDEX 01 01:41:48
  TRACK 66 AUDIO
    TITLE "0:"
    INDEX 01 01:45:51
  TRACK 67 AUDIO
    TITLE "6:cjc019_0623"
    INDEX 01 01:46:31
  TRACK 68 AUDIO
    TITLE "0:"
    INDEX 01 01:47:62
  TRACK 69 AUDIO
    TITLE "7:cjc019_0624"
    INDEX 01 01:48:48
  TRACK 70 AUDIO
    TITLE "0:"
    INDEX 01 01:50:64
  TRACK 71 AUDIO
    TITLE "8:cjc019_0625"
    INDEX 01 01:51:48
  TRACK 72 AUDIO
    TITLE "0:"
    INDEX 01 01:55:07
  TRACK 73 AUDIO
    TITLE "6:cjc019_0626"
    INDEX 01 01:55:58
  TRACK 74 AUDIO
    TITLE "0:"
    INDEX 01 01:56:73
  TRACK 75 AUDIO
    TITLE "7:cjc019_0627"
    INDEX 01 01:57:58
  TRACK 76 AUDIO
    TITLE "0:"
    INDEX 01 01:59:04
  TRACK 77 AUDIO
    TITLE "8:cjc019_0628"
    INDEX 01 01:59:61
  TRACK 78 AUDIO
    TITLE "0:"
    INDEX 01 02:02:67
  TRACK 79 AUDIO
    TITLE "6:cjc019_0629"
    INDEX 01 02:03:63
  TRACK 80 AUDIO
    TITLE "0:"
    INDEX 01 02:05:11
  TRACK 81 AUDIO
    TITLE "7:cjc019_0630"
    INDEX 01 02:05:68
  TRACK 82 AUDIO
    TITLE "0:"
    INDEX 01 02:11:19
  TRACK 83 AUDIO
    TITLE "8:cjc019_0631"
    INDEX 01 02:11:72
  TRACK 84 AUDIO
    TITLE "0:"
    INDEX 01 02:16:26
